<svg width="230" height="121" viewBox="0 0 230 121" fill="none" xmlns="http://www.w3.org/2000/svg">
<g clip-path="url(#clip0_47_1080)">
<path d="M229.558 37.1656C229.861 37.2777 230.006 37.3699 230 37.4358C229.951 37.7258 227.122 37.6094 221.511 37.0865C220.997 37.1524 220.477 37.1986 219.95 37.2579C219.372 37.3425 218.789 37.3953 218.205 37.4161H218.093C217.306 37.3464 216.524 37.2209 215.755 37.0404L214.912 36.8756C212.085 36.2778 209.207 35.9511 206.318 35.9002C202.947 35.8592 199.604 36.5167 196.499 37.8313C195.019 38.4579 193.616 39.2517 192.317 40.1974C189.586 42.0698 186.434 43.238 183.143 43.5982C179.612 43.9779 176.042 43.4163 172.798 41.9703L158.191 -0.00634766L149.281 25.6977L142.036 25.0913C141.608 25.0518 141.141 25.032 140.68 25.032C139.792 25.0326 138.907 25.1433 138.046 25.3616H127.91C126.653 25.1497 125.38 25.0395 124.104 25.032C122.872 25.0306 121.642 25.1409 120.429 25.3616H118.322L119.474 19.1596L106.962 22.0464L105.48 21.2621C103.034 20.0241 100.318 19.4169 97.5775 19.4957C94.8638 19.464 92.1862 20.1192 89.7934 21.4005L90.307 18.7115H72.6314L71.3143 25.3945C70.1201 25.6604 68.9617 26.0675 67.8635 26.6072L66.1908 26.0733C63.9649 25.3884 61.6508 25.0332 59.3221 25.0188C55.7528 24.9412 52.2454 25.9602 49.2725 27.9385C46.9116 26.0164 43.9521 24.9833 40.9089 25.0188C39.4029 25.0199 37.9052 25.2419 36.4636 25.6779C35.5219 24.0949 34.2028 22.7702 32.6243 21.8223C30.3391 20.3921 27.3558 19.6671 23.8391 19.6671C21.491 19.6385 19.1471 19.8751 16.8519 20.3723L12.7425 21.3807L8.36313 44.3232H7.14482L0.849041 77.6593C0.340233 80.3682 0.0626326 83.1155 0.0192566 85.8714C0.0192566 99.778 10.5561 106.725 24.8929 106.725L133.146 106.125L134.061 104.418C135.905 101.465 139.297 97.6228 144.032 93.7474C147.382 91.0099 151.111 88.7722 155.102 87.1039L198.198 121L181.293 70.7061C183.876 70.6013 186.439 70.2011 188.932 69.5131C193.102 68.378 197.022 66.4711 200.49 63.8912C204.2 61.5804 207.792 59.0838 211.25 56.4107C215.096 53.4382 218.495 50.7887 222.354 46.6102C225.036 43.6864 227.447 40.5253 229.558 37.1656ZM23.5296 83.1626L29.5554 53.2603H33.9611C32.1391 63.3661 30.3171 73.4544 28.4951 83.5251C28.2778 85.3903 26.5195 86.458 25.2024 86.0823C24.6354 85.8558 24.1616 85.444 23.858 84.914C23.5543 84.384 23.4386 83.7668 23.5296 83.1626ZM52.4072 83.4196L52.2953 83.3538C52.4599 82.6354 52.6246 81.9104 52.7694 81.1656C54.6777 82.6831 56.7314 84.0077 58.9006 85.1201L59.8094 85.6144C57.2051 85.4685 54.6706 84.717 52.4072 83.4196ZM125.415 84.1644L122.984 63.2717L131.98 70.0931C129.258 74.5152 127.055 79.2368 125.415 84.1644ZM141.668 43.15L141.773 42.5964L143.36 42.7282L143.222 43.1171L141.668 43.15Z" fill="#F8F4F4"/>
<path d="M18.6634 24.9264C20.4462 24.5595 22.2635 24.3871 24.0833 24.4123C25.9997 24.4123 27.9951 24.6891 29.411 25.5855C30.1079 25.979 30.6845 26.555 31.079 27.2517C31.4734 27.9484 31.6709 28.7394 31.6501 29.5399C31.6501 32.5453 29.6745 34.4237 27.0402 35.2739V35.3728C28.2454 35.9066 28.7788 37.2446 28.9764 39.0702C29.2266 41.3506 29.3913 43.9935 29.7469 44.8305H25.2951C24.9909 43.2512 24.7994 41.6522 24.7221 40.0456C24.5377 37.5939 23.6882 36.8359 21.976 36.8359H20.6589L19.1442 44.8305H14.857L18.6634 24.9264ZM21.2976 33.5933H23.0823C25.4334 33.5933 27.1456 32.1697 27.1456 30.1924C27.1456 28.5513 25.7758 27.8197 24.0504 27.8197C23.4827 27.8081 22.9154 27.8567 22.3579 27.9647L21.2976 33.5933Z" fill="#26276C"/>
<path d="M47.3961 35.8406C47.3961 41.2121 43.7016 45.1665 38.611 45.1665C34.8638 45.1665 32.3679 42.7411 32.3679 39.0767C32.3679 33.982 35.9307 29.7705 41.153 29.7705C45.1044 29.7705 47.3961 32.4793 47.3961 35.8406ZM36.8593 38.9844C36.8593 40.7112 37.722 41.858 39.2301 41.858C41.5811 41.858 42.9246 38.378 42.9246 35.8801C42.9246 34.5093 42.3319 33.0791 40.613 33.0791C38.0974 33.0791 36.8395 36.7106 36.8461 38.9844H36.8593Z" fill="#26276C"/>
<path d="M58.3084 44.8304C58.3413 43.9736 58.4269 42.9652 58.4994 41.9173H58.4269C57.0769 44.3625 55.1934 45.1665 53.4812 45.1665C50.847 45.1665 49.0294 43.1102 49.0294 40.0389C49.0294 35.0761 52.3221 29.7705 59.5662 29.7705C61.2152 29.785 62.8537 30.0336 64.4329 30.5087L62.8787 38.2133C62.4854 40.3881 62.2892 42.594 62.2926 44.8041L58.3084 44.8304ZM59.5662 33.1911C59.177 33.1051 58.7794 33.0631 58.3808 33.0659C55.582 33.0659 53.5405 36.4997 53.5405 39.2348C53.5405 40.6782 54.12 41.6734 55.3185 41.6734C56.5171 41.6734 58.2162 40.1971 58.8813 36.5919L59.5662 33.1911Z" fill="#26276C"/>
<path d="M82.5893 23.4697L79.6126 39.1162C79.2514 41.0028 79.0204 42.9121 78.9211 44.8304H74.9698L75.1805 42.4445H75.1213C74.618 43.2735 73.9104 43.9592 73.0663 44.4359C72.2222 44.9125 71.2698 45.1641 70.3006 45.1665C67.8047 45.1665 65.7566 43.1893 65.7566 39.6105C65.7566 34.4895 69.4379 29.7705 74.9764 29.7705C75.6504 29.7759 76.3185 29.8962 76.952 30.1264L78.2691 23.4697H82.5893ZM76.3857 33.5865C75.8807 33.2399 75.279 33.0622 74.6669 33.0791C72.0787 33.0791 70.248 36.0713 70.248 38.8987C70.248 40.6716 71.0119 41.6734 72.2697 41.6734C73.5276 41.6734 75.0488 40.3553 75.6152 37.541L76.3857 33.5865Z" fill="#26276C"/>
<path d="M88.7665 40.1379C90.2186 40.9818 91.8684 41.4253 93.5476 41.4231C95.2269 41.4231 96.7548 40.6388 96.7548 39.0636C96.7548 37.9036 95.8723 37.172 94.0218 36.1834C91.8683 35.0366 89.8202 33.4416 89.8202 30.8185C89.8202 26.7191 93.3961 24.2277 97.8019 24.2277C99.4603 24.1505 101.111 24.4927 102.603 25.2229L101.233 28.8347C100.067 28.2394 98.7746 27.9363 97.466 27.9515C95.4376 27.9515 94.3774 28.9599 94.3774 30.0672C94.3774 31.1744 95.622 31.9785 97.3343 32.9473C99.8039 34.2655 101.351 35.8736 101.351 38.3056C101.351 42.8137 97.6175 45.1403 93.1064 45.1403C90.2878 45.1403 88.266 44.3889 87.3111 43.6903L88.7665 40.1379Z" fill="#26276C"/>
<path d="M111.361 26.0137L110.591 30.1263H113.732L113.074 33.4217H109.932L108.945 38.4175C108.809 39.0309 108.727 39.655 108.701 40.2827C108.677 40.4518 108.694 40.6241 108.748 40.7858C108.803 40.9475 108.895 41.0942 109.017 41.2139C109.138 41.3337 109.286 41.4234 109.449 41.4757C109.611 41.528 109.784 41.5415 109.952 41.5152C110.35 41.5219 110.749 41.5021 111.144 41.4558L110.644 44.8435C109.814 45.0844 108.952 45.1955 108.088 45.1731C105.487 45.1731 104.262 43.8549 104.262 42.0029C104.272 41.0852 104.376 40.1708 104.572 39.2743L105.711 33.4217H103.828L104.447 30.1263H106.337L106.923 27.0352L111.361 26.0137Z" fill="#26276C"/>
<path d="M123.044 44.8304C123.077 43.9736 123.163 42.9652 123.242 41.9173H123.169C121.819 44.3625 119.929 45.1665 118.217 45.1665C115.583 45.1665 113.765 43.1102 113.765 40.0389C113.765 35.0761 117.058 29.7705 124.302 29.7705C125.949 29.785 127.585 30.0336 129.162 30.5087L127.615 38.2133C127.216 40.3874 127.017 42.5936 127.022 44.8041L123.044 44.8304ZM124.302 33.1911C123.913 33.1046 123.515 33.0626 123.117 33.0659C120.318 33.0659 118.283 36.4997 118.276 39.2348C118.276 40.6782 118.862 41.6734 120.054 41.6734C121.372 41.6734 122.952 40.1971 123.624 36.5919L124.302 33.1911Z" fill="#26276C"/>
<path d="M130.216 44.8304L131.875 36.0647C132.29 33.8502 132.475 31.3721 132.626 30.1H136.373C136.301 31.0953 136.222 32.0773 136.11 33.1186H136.202C137.243 31.1414 138.876 29.7705 140.891 29.7705C141.161 29.7705 141.444 29.7705 141.701 29.8035L140.852 34.0281C140.667 34.0281 140.423 34.0281 140.193 34.0281C137.434 34.0281 136.136 36.4931 135.583 39.3864L134.549 44.8568L130.216 44.8304Z" fill="#26276C"/>
<path d="M23.5367 49.0815L18.0773 77.8964C17.6909 79.8498 17.499 81.8368 17.5044 83.8281C17.5439 87.888 20.02 91.0252 24.8011 91.0252C30.3989 91.0252 34.0868 87.3014 35.8649 77.9755L41.3506 49.0815H52.0521L46.6586 77.5603C43.7543 92.719 37.1029 100.002 23.4774 100.002C13.1447 100.002 6.82922 94.6897 6.82922 84.0456C6.86643 81.6827 7.1088 79.3275 7.55362 77.0066L12.822 49.0815H23.5367Z" fill="#26276C"/>
<path d="M49.2533 87.229C52.845 89.3113 56.9235 90.405 61.0743 90.3992C65.2166 90.3992 68.977 88.4747 68.977 84.5729C68.977 81.7125 66.7906 79.9001 62.2202 77.4615C56.9057 74.6275 51.848 70.6928 51.848 64.2009C51.848 54.0774 60.6792 47.9414 71.5585 47.9414C77.6633 47.9414 81.2524 49.2596 83.4125 50.4064L80.0275 59.3303C77.1495 57.8485 73.9518 57.0972 70.7155 57.1421C65.7171 57.1421 63.0961 59.6334 63.0895 62.362C63.0895 65.2817 66.1649 67.0942 70.406 69.4801C76.4911 72.6568 80.3238 76.7299 80.3238 82.7275C80.3238 93.8659 71.1041 99.6065 59.9548 99.6065C53.0004 99.6065 47.9954 97.7545 45.6378 96.0277L49.2533 87.229Z" fill="#26276C"/>
<path d="M94.272 85.8184L88.3977 98.8286H76.9652L101.378 48.7388H115.122L120.943 98.8286H109.748L108.734 85.8184H94.272ZM108.247 77.6525L107.272 66.8766C107.055 64.1282 106.817 60.1012 106.574 57.0431H106.416C105.099 60.1144 103.749 64.003 102.392 66.87L97.4528 77.6657L108.247 77.6525Z" fill="#26276C"/>
<path d="M146.673 56.0149C152.669 50.6247 159.762 46.6017 167.464 44.224L158.415 18.23L148.188 47.7632L116.959 48.4223L138.757 64.952C141.059 61.6906 143.714 58.6934 146.673 56.0149Z" fill="#26276C"/>
<path d="M165.771 76.763C163.365 77.7384 160.995 78.6633 158.659 79.5377L185.66 100.78L176.591 72.1494C173.114 73.6917 169.507 75.2295 165.771 76.763Z" fill="#E01F2A"/>
<path d="M174.741 66.8241C173.503 69.4933 171.448 70.5347 169.347 71.4376C166.16 72.8151 162.907 74.0409 159.745 75.4711C148.003 80.8097 138.395 88.9625 129.768 98.3939C129.268 98.9475 128.741 99.4813 128.22 100.022L127.634 99.7845C129.037 94.6569 130.209 89.4568 131.895 84.4214C135.188 74.588 140.575 66.0002 148.517 59.1985C152.475 55.7563 157.544 53.8626 162.788 53.8666C165.903 53.8666 169.024 54.0248 172.139 54.1632C177.184 54.3938 182.143 54.1632 186.687 51.5269C185.146 54.0313 182.874 55.5868 180.299 56.7665C176.749 58.3879 172.936 58.6976 169.103 59.1194C165.896 59.4753 162.735 60.1806 159.568 60.8067C158.759 61.0096 158.008 61.3977 157.375 61.9403C165.179 62.4412 172.936 62.7905 180.338 59.561C179.882 60.5897 179.217 61.5125 178.386 62.2713C177.555 63.0302 176.576 63.6086 175.511 63.9702C172.837 64.8536 170.115 65.5842 167.358 66.1584C164.448 66.8504 161.497 67.4172 158.58 68.1356C157.666 68.3812 156.807 68.7946 156.044 69.3549C162.39 70.3417 168.885 69.4625 174.741 66.8241Z" fill="#E01F2A"/>
<path d="M190.902 45.9838C190.189 46.6442 189.437 47.2604 188.649 47.8293C184.104 50.8905 178.534 52.0299 173.154 50.9994C169.44 50.2104 165.618 50.0788 161.859 50.6106C162.913 50.0965 163.96 49.5429 165.04 49.0815C170.364 46.7906 176.194 45.9318 181.952 46.5902C184.342 46.8406 186.825 46.2541 189.268 46.0168C189.764 45.9342 190.253 45.813 190.73 45.6543L190.902 45.9838Z" fill="#E01F2A"/>
<path d="M222.348 41.8315C220.946 43.2794 219.211 44.3628 217.296 44.9877C215.381 45.6125 213.342 45.7598 211.356 45.4168C207.267 44.85 203.197 44.0328 199.081 44.9159C197.329 45.2916 195.65 45.9902 193.733 46.6032C195.064 44.5331 197.024 42.9458 199.325 42.0753C204.112 40.019 209.005 40.5858 213.911 41.5283C215.285 41.8522 216.68 42.0725 218.087 42.1874C219.513 42.1582 220.936 42.0394 222.348 41.8315Z" fill="#E01F2A"/>
<path d="M188.076 53.4446C191.126 49.767 194.807 48.4752 198.916 48.172C200.563 48.0544 202.217 48.0654 203.862 48.205C207.978 48.5411 212.068 48.752 216.118 47.5459C212.627 51.2697 208.399 53.0228 203.315 52.5417C202.202 52.4362 201.103 52.2253 200.023 52.0408C195.683 51.329 194.3 51.474 188.076 53.4446Z" fill="#E01F2A"/>
<path d="M206.318 55.356C202.11 59.5411 197.224 61.2349 191.376 60.0156C189.018 59.5213 186.588 59.3566 184.408 59.1061C186.922 56.9669 190.092 55.7549 193.391 55.6723C194.681 55.6471 195.972 55.6978 197.257 55.8239C200.286 56.0282 203.329 56.6346 206.318 55.356Z" fill="#E01F2A"/>
<path d="M177.816 65.7036C179.792 63.6407 182.354 62.863 185.06 62.751C186.646 62.7779 188.229 62.8901 189.802 63.0871C192.001 63.2387 194.194 63.3639 196.335 63.4891C193.701 65.9211 190.73 67.6677 186.68 66.5275C183.816 65.7168 180.898 64.8996 177.816 65.7036Z" fill="#E01F2A"/>
</g>
<defs>
<clipPath id="clip0_47_1080">
<rect width="230" height="121" fill="white"/>
</clipPath>
</defs>
</svg>
