<svg version="1.2" xmlns="http://www.w3.org/2000/svg" viewBox="0 0 70 55" width="70" height="55">
	<title>LOGO</title>
	<defs>
		<clipPath clipPathUnits="userSpaceOnUse" id="cp1">
			<path d="m75-12v80h-152v-80z"/>
		</clipPath>
	</defs>
	<style>
		.s0 { fill: #26276c } 
		.s1 { fill: #e01f2a } 
	</style>
	<g id="Clip-Path" clip-path="url(#cp1)">
		<g>
			<path class="s0" d="m19.9 25c4-3.5 8.7-6.2 13.8-7.8l-6-17.1-6.8 19.5-20.6 0.4 14.4 10.9q2.3-3.2 5.2-5.9z"/>
			<path class="s1" d="m32.6 38.8q-2.4 0.9-4.7 1.8l17.8 14-6-18.9q-3.4 1.5-7.1 3.1z"/>
			<path class="s1" d="m38.5 32.2c-0.8 1.7-2.2 2.4-3.6 3-2.1 0.9-4.2 1.8-6.3 2.7-7.8 3.5-14.1 8.9-19.8 15.2q-0.5 0.5-1.1 1l-0.4-0.1c1-3.4 1.8-6.9 2.9-10.2 2.1-6.5 5.7-12.2 11-16.7 2.6-2.2 5.9-3.5 9.4-3.5 2 0 4.1 0.1 6.2 0.2 3.3 0.2 6.6 0 9.6-1.7-1 1.6-2.5 2.7-4.2 3.4-2.4 1.1-4.9 1.3-7.4 1.6-2.2 0.2-4.3 0.7-6.3 1.1q-0.9 0.2-1.5 0.8c5.2 0.3 10.3 0.5 15.2-1.6q-0.5 1-1.3 1.8-0.8 0.7-1.9 1.1-2.7 0.9-5.4 1.4c-1.9 0.5-3.9 0.9-5.8 1.3q-0.9 0.3-1.7 0.9c4.2 0.6 8.5 0 12.4-1.7z"/>
			<path class="s1" d="m49.2 18.4q-0.7 0.7-1.5 1.2c-3 2-6.7 2.8-10.3 2.1-2.4-0.5-4.9-0.6-7.4-0.2 0.7-0.4 1.4-0.7 2.1-1 3.5-1.6 7.3-2.1 11.1-1.7 1.6 0.2 3.3-0.2 4.9-0.4q0.5-0.1 0.9-0.2z"/>
			<path class="s1" d="m69.9 15.7c-0.9 0.9-2 1.6-3.3 2-1.3 0.5-2.6 0.6-3.9 0.3-2.7-0.3-5.4-0.9-8.1-0.3-1.2 0.2-2.3 0.7-3.6 1.1 0.9-1.4 2.2-2.4 3.7-3 3.2-1.3 6.4-1 9.7-0.3q1.3 0.3 2.7 0.4 1.4 0 2.8-0.2z"/>
			<path class="s1" d="m47.3 23.3c2-2.4 4.4-3.3 7.2-3.5q1.6-0.1 3.2 0.1c2.7 0.2 5.4 0.3 8.1-0.5-2.3 2.5-5.1 3.7-8.4 3.3-0.8 0-1.5-0.2-2.2-0.3-2.9-0.5-3.8-0.4-7.9 0.9z"/>
			<path class="s1" d="m59.3 24.6c-2.7 2.8-6 3.9-9.8 3.1-1.6-0.3-3.2-0.5-4.6-0.6 1.6-1.4 3.7-2.2 5.9-2.3q1.3 0 2.6 0.1c2 0.1 4 0.5 5.9-0.3z"/>
			<path class="s1" d="m40.5 31.4c1.3-1.3 3-1.8 4.8-1.9q1.6 0 3.1 0.2 2.2 0.2 4.4 0.3c-1.8 1.6-3.8 2.7-6.4 2-1.9-0.6-3.9-1.1-5.9-0.6z"/>
		</g>
	</g>
</svg>