<svg version="1.2" xmlns="http://www.w3.org/2000/svg" viewBox="0 0 143 75" width="143" height="75">
	<title>LOGO</title>
	<defs>
		<clipPath clipPathUnits="userSpaceOnUse" id="cp1">
			<path d="m143 0v75h-143v-75z"/>
		</clipPath>
	</defs>
	<style>
		.s0 { fill: #f8f4f4 } 
		.s1 { fill: #26276c } 
		.s2 { fill: #e01f2a } 
	</style>
	<g id="Clip-Path" clip-path="url(#cp1)">
		<g>
			<path class="s0" d="m142.7 23q0.3 0.1 0.3 0.2 0 0.3-5.3-0.2-0.5 0-0.9 0.1-0.6 0.1-1.1 0.1h-0.1q-0.7-0.1-1.5-0.2l-0.5-0.1q-2.6-0.6-5.3-0.6c-2.1-0.1-4.2 0.3-6.1 1.1q-1.4 0.6-2.6 1.5c-1.7 1.2-3.7 1.9-5.7 2.1-2.2 0.3-4.4-0.1-6.5-1l-9-26-5.6 15.9-4.5-0.3q-0.4-0.1-0.8-0.1-0.9 0-1.7 0.2h-6.3q-1.1-0.2-2.3-0.2-1.2 0-2.3 0.2h-1.3l0.7-3.8-7.8 1.8-0.9-0.5c-1.5-0.8-3.2-1.2-4.9-1.1-1.7 0-3.4 0.4-4.9 1.2l0.3-1.7h-10.9l-0.9 4.1q-1.1 0.3-2.1 0.8l-1-0.3q-2.1-0.7-4.3-0.7c-2.2 0-4.4 0.6-6.3 1.8-1.4-1.2-3.3-1.8-5.2-1.8q-1.4 0-2.7 0.4c-0.6-1-1.4-1.8-2.4-2.4-1.4-0.9-3.3-1.3-5.5-1.3q-2.2 0-4.3 0.4l-2.6 0.7-2.7 14.2h-0.8l-3.9 20.6q-0.4 2.6-0.5 5.1c0 8.6 6.6 13 15.5 13l67.3-0.4 0.6-1.1c1.1-1.8 3.2-4.2 6.2-6.6 2-1.7 4.4-3.1 6.8-4.1l26.8 21-10.5-31.2q2.4-0.1 4.8-0.7c2.6-0.7 5-1.9 7.2-3.5q3.4-2.1 6.6-4.6c2.4-1.9 4.5-3.5 6.9-6.1q2.6-2.7 4.5-5.9zm-128.1 28.5l3.8-18.5h2.7q-1.7 9.4-3.4 18.8c-0.1 1.1-1.2 1.8-2 1.6-0.4-0.2-0.7-0.4-0.9-0.8q-0.3-0.5-0.2-1.1zm18 0.2h-0.1q0.2-0.7 0.3-1.4 1.8 1.4 3.8 2.5l0.6 0.3c-1.6-0.1-3.2-0.6-4.6-1.4zm45.4 0.5l-1.5-13 5.6 4.2c-1.7 2.8-3.1 5.7-4.1 8.8zm10.1-25.5v-0.3l1 0.1-0.1 0.2z"/>
			<path class="s1" d="m11.6 15.5q1.7-0.4 3.4-0.4c1.2 0 2.4 0.2 3.3 0.8q0.6 0.3 1 1 0.4 0.7 0.4 1.4c0 1.9-1.3 3-2.9 3.6 0.8 0.4 1.1 1.2 1.2 2.3 0.2 1.4 0.3 3.1 0.5 3.6h-2.8q-0.3-1.5-0.3-3c-0.1-1.5-0.7-2-1.7-2h-0.9l-0.9 5h-2.7zm1.7 5.4h1.1c1.4 0 2.5-0.9 2.5-2.1 0-1.1-0.8-1.5-1.9-1.5q-0.5 0-1.1 0.1z"/>
			<path class="s1" d="m29.5 22.2c0 3.3-2.3 5.8-5.5 5.8-2.3 0-3.9-1.5-3.9-3.8 0-3.1 2.2-5.7 5.5-5.7 2.4 0 3.9 1.6 3.9 3.7zm-6.6 2c0 1 0.6 1.7 1.5 1.7 1.5 0 2.3-2.1 2.3-3.7 0-0.8-0.4-1.7-1.4-1.7-1.6 0-2.4 2.3-2.4 3.7z"/>
			<path class="s1" d="m36.3 27.8c0-0.5 0-1.2 0.1-1.8h-0.1c-0.8 1.5-2 2-3 2-1.7 0-2.8-1.3-2.8-3.2 0-3.1 2-6.3 6.5-6.3q1.6 0 3.1 0.4l-1 4.8q-0.4 2-0.4 4.1zm0.8-7.2q-0.4-0.1-0.7-0.1c-1.8 0-3 2.1-3 3.8 0 0.9 0.3 1.5 1.1 1.5 0.7 0 1.8-0.9 2.2-3.1z"/>
			<path class="s1" d="m51.3 14.5l-1.8 9.7q-0.3 1.8-0.4 3.6h-2.5l0.1-1.5q-0.5 0.8-1.3 1.2-0.8 0.5-1.7 0.5c-1.5 0-2.8-1.2-2.8-3.4 0-3.2 2.3-6.1 5.7-6.1q0.6 0 1.2 0.2l0.9-4.2zm-3.9 6.3q-0.5-0.3-1.1-0.3c-1.6 0-2.7 1.9-2.7 3.6 0 1.1 0.5 1.7 1.2 1.7 0.8 0 1.8-0.8 2.1-2.5z"/>
			<path class="s1" d="m55.2 24.9c0.9 0.5 1.9 0.8 3 0.8 1 0 2-0.5 2-1.5 0-0.7-0.6-1.2-1.7-1.8-1.4-0.7-2.7-1.7-2.7-3.3 0-2.5 2.3-4.1 5-4.1 1 0 2.1 0.2 3 0.6l-0.9 2.3c-0.7-0.4-1.5-0.6-2.3-0.6-1.3 0-1.9 0.7-1.9 1.3 0 0.7 0.8 1.2 1.8 1.8 1.6 0.8 2.5 1.8 2.5 3.3 0 2.8-2.3 4.3-5.1 4.3-1.8 0-3-0.5-3.6-0.9z"/>
			<path class="s1" d="m69.2 16.1l-0.4 2.6h1.9l-0.4 2h-2l-0.6 3.1q-0.1 0.6-0.1 1.2 0 0.1 0 0.3 0.1 0.1 0.2 0.2 0.1 0.2 0.2 0.2 0.2 0.1 0.4 0 0.3 0 0.7 0l-0.3 2.1q-0.8 0.2-1.6 0.2c-1.6 0-2.4-0.8-2.4-2q0-0.8 0.2-1.7l0.7-3.6h-1.1l0.3-2h1.2l0.4-1.9z"/>
			<path class="s1" d="m76.5 27.8c0-0.5 0.1-1.2 0.1-1.8-0.9 1.5-2 2-3.1 2-1.6 0-2.8-1.3-2.8-3.2 0-3.1 2.1-6.3 6.6-6.3q1.5 0 3 0.4l-1 4.8q-0.3 2-0.3 4.1zm0.8-7.2q-0.4-0.1-0.8-0.1c-1.7 0-3 2.1-3 3.8 0 0.9 0.4 1.5 1.1 1.5 0.8 0 1.8-0.9 2.2-3.1z"/>
			<path class="s1" d="m81 27.8l1-5.4c0.2-1.4 0.4-3 0.5-3.7h2.3q-0.1 0.9-0.2 1.8h0.1c0.6-1.2 1.6-2 2.9-2q0.3-0.1 0.5 0l-0.5 2.6q-0.2 0-0.4 0c-1.8 0-2.6 1.5-2.9 3.3l-0.6 3.4z"/>
			<path class="s1" d="m14.6 30.4l-3.4 17.9q-0.3 1.8-0.3 3.7c0 2.5 1.5 4.4 4.5 4.4 3.5 0 5.8-2.3 6.9-8.1l3.4-17.9h6.7l-3.4 17.7c-1.8 9.4-5.9 13.9-14.4 13.9-6.4 0-10.4-3.3-10.4-9.9q0.1-2.2 0.5-4.4l3.3-17.3z"/>
			<path class="s1" d="m30.6 54.1c2.3 1.3 4.8 1.9 7.4 1.9 2.5 0 4.9-1.2 4.9-3.6 0-1.8-1.4-2.9-4.2-4.4-3.3-1.7-6.5-4.2-6.5-8.2 0-6.3 5.5-10.1 12.3-10.1 3.8 0 6 0.8 7.4 1.5l-2.1 5.6c-1.8-0.9-3.8-1.4-5.8-1.4-3.1 0-4.8 1.6-4.8 3.3 0 1.8 1.9 2.9 4.6 4.4 3.8 1.9 6.1 4.5 6.1 8.2 0 6.9-5.7 10.4-12.6 10.4-4.3 0-7.5-1.1-8.9-2.2z"/>
			<path class="s1" d="m58.6 53.2l-3.6 8.1h-7.1l15.1-31.1h8.6l3.6 31.1h-7l-0.6-8.1zm8.7-5.1l-0.6-6.6c-0.1-1.8-0.3-4.2-0.4-6.1h-0.1c-0.9 1.9-1.7 4.3-2.5 6l-3.1 6.7z"/>
			<path class="s1" d="m91.2 34.7c3.7-3.3 8.1-5.8 12.9-7.3l-5.6-16.1-6.4 18.3-19.4 0.4 13.6 10.3q2.1-3.1 4.9-5.6z"/>
			<path class="s2" d="m103.1 47.6q-2.3 0.9-4.5 1.7l16.8 13.2-5.6-17.8q-3.2 1.5-6.7 2.9z"/>
			<path class="s2" d="m108.6 41.4c-0.7 1.7-2 2.3-3.3 2.9-2 0.8-4 1.6-6 2.5-7.3 3.3-13.3 8.3-18.6 14.2q-0.5 0.5-1 1l-0.3-0.2c0.8-3.1 1.6-6.4 2.6-9.5 2.1-6.1 5.4-11.4 10.3-15.6 2.5-2.1 5.7-3.3 8.9-3.3 1.9 0 3.9 0.1 5.8 0.2 3.2 0.1 6.2 0 9.1-1.7-1 1.6-2.4 2.6-4 3.3-2.2 1-4.6 1.2-7 1.4-2 0.3-3.9 0.7-5.9 1.1q-0.8 0.2-1.4 0.7c4.9 0.3 9.7 0.5 14.3-1.5q-0.4 1-1.2 1.7-0.8 0.7-1.8 1.1-2.5 0.8-5 1.3c-1.9 0.4-3.7 0.8-5.5 1.2q-0.9 0.3-1.6 0.8c4 0.6 8 0.1 11.6-1.6z"/>
			<path class="s2" d="m118.7 28.5q-0.7 0.6-1.4 1.1c-2.8 1.9-6.3 2.6-9.6 2-2.4-0.5-4.7-0.6-7.1-0.2 0.7-0.3 1.3-0.7 2-1 3.3-1.4 6.9-1.9 10.5-1.5 1.5 0.1 3.1-0.2 4.6-0.4q0.4-0.1 0.9-0.2z"/>
			<path class="s2" d="m138.2 25.9c-0.8 0.9-1.9 1.6-3.1 2-1.2 0.4-2.5 0.5-3.7 0.3-2.5-0.4-5.1-0.9-7.6-0.4-1.1 0.3-2.2 0.7-3.3 1.1 0.8-1.3 2-2.3 3.4-2.8 3-1.3 6-0.9 9.1-0.4q1.3 0.3 2.6 0.4 1.3 0 2.6-0.2z"/>
			<path class="s2" d="m116.9 33.1c1.9-2.3 4.2-3.1 6.8-3.2q1.5-0.2 3 0c2.6 0.2 5.2 0.3 7.7-0.4-2.2 2.3-4.8 3.4-8 3.1-0.7-0.1-1.4-0.2-2-0.3-2.7-0.5-3.6-0.4-7.5 0.8z"/>
			<path class="s2" d="m128.3 34.3c-2.6 2.6-5.7 3.7-9.3 2.9-1.5-0.3-3-0.4-4.3-0.6 1.5-1.3 3.5-2 5.5-2.1q1.2 0 2.4 0.1c1.9 0.1 3.8 0.5 5.7-0.3z"/>
			<path class="s2" d="m110.6 40.7c1.2-1.3 2.8-1.7 4.5-1.8q1.4 0 2.9 0.2 2.1 0.1 4.1 0.3c-1.7 1.5-3.5 2.5-6 1.8-1.8-0.5-3.6-1-5.5-0.5z"/>
		</g>
	</g>
</svg>